<?xml version="1.0" encoding="UTF-8"?>
<!DOCTYPE svg PUBLIC "-//W3C//DTD SVG 1.1//EN" "http://www.w3.org/Graphics/SVG/1.1/DTD/svg11.dtd">
<svg xmlns="http://www.w3.org/2000/svg" version="1.1" width="400px" height="340px" style="shape-rendering:geometricPrecision; text-rendering:geometricPrecision; image-rendering:optimizeQuality; fill-rule:evenodd; clip-rule:evenodd" xmlns:xlink="http://www.w3.org/1999/xlink">
<g><path style="opacity:1" fill="#fefdfd" d="M -0.5,-0.5 C 132.833,-0.5 266.167,-0.5 399.5,-0.5C 399.5,112.833 399.5,226.167 399.5,339.5C 266.167,339.5 132.833,339.5 -0.5,339.5C -0.5,226.167 -0.5,112.833 -0.5,-0.5 Z"/></g>
<g><path style="opacity:1" fill="#011350" d="M 263.5,21.5 C 267.8,21.8153 269.467,24.1486 268.5,28.5C 266.097,28.552 263.764,28.2186 261.5,27.5C 258.972,26.8343 256.306,26.1676 253.5,25.5C 256.768,24.513 260.102,24.1796 263.5,24.5C 263.5,23.5 263.5,22.5 263.5,21.5 Z"/></g>
<g><path style="opacity:1" fill="#393f6a" d="M 270.5,27.5 C 269.287,28.5747 267.787,29.2414 266,29.5C 263.992,29.6932 262.492,29.0265 261.5,27.5C 263.764,28.2186 266.097,28.552 268.5,28.5C 269.467,24.1486 267.8,21.8153 263.5,21.5C 263.62,20.4138 264.287,19.7472 265.5,19.5C 267.056,20.5471 268.723,21.2137 270.5,21.5C 270.5,23.5 270.5,25.5 270.5,27.5 Z"/></g>
<g><path style="opacity:1" fill="#35386c" d="M 263.5,21.5 C 263.5,22.5 263.5,23.5 263.5,24.5C 260.102,24.1796 256.768,24.513 253.5,25.5C 256.306,26.1676 258.972,26.8343 261.5,27.5C 257.374,27.572 253.374,28.2387 249.5,29.5C 250.398,28.8423 251.398,28.1757 252.5,27.5C 249.185,26.4473 245.852,26.4473 242.5,27.5C 249.229,24.7608 256.229,22.7608 263.5,21.5 Z"/></g>
<g><path style="opacity:1" fill="#b0b5c8" d="M 148.5,29.5 C 143.534,30.2415 138.534,30.2415 133.5,29.5C 137.039,29.1566 140.539,28.4899 144,27.5C 145.986,27.5687 147.486,28.2353 148.5,29.5 Z"/></g>
<g><path style="opacity:1" fill="#bec2d1" d="M 261.5,27.5 C 262.492,29.0265 263.992,29.6932 266,29.5C 267.787,29.2414 269.287,28.5747 270.5,27.5C 270.5,28.5 270.5,29.5 270.5,30.5C 263.782,29.3159 257.116,29.4826 250.5,31C 247.221,33.4112 243.555,35.0779 239.5,36C 236.297,39.3709 232.964,42.5375 229.5,45.5C 232.554,40.1129 236.887,36.1129 242.5,33.5C 245.1,32.5324 247.434,31.1991 249.5,29.5C 253.374,28.2387 257.374,27.572 261.5,27.5 Z"/></g>
<g><path style="opacity:1" fill="#72799d" d="M 249.5,29.5 C 247.434,31.1991 245.1,32.5324 242.5,33.5C 244.121,31.058 246.454,29.7247 249.5,29.5 Z"/></g>
<g><path style="opacity:1" fill="#1a2157" d="M 249.5,29.5 C 246.454,29.7247 244.121,31.058 242.5,33.5C 236.887,36.1129 232.554,40.1129 229.5,45.5C 229.396,47.7028 228.73,49.7028 227.5,51.5C 227.167,51.5 226.833,51.5 226.5,51.5C 226.651,46.3861 225.651,45.7194 223.5,49.5C 224.194,45.4283 225.861,41.7617 228.5,38.5C 230.858,36.4707 233.192,34.4707 235.5,32.5C 237.296,30.1 239.63,28.4333 242.5,27.5C 245.852,26.4473 249.185,26.4473 252.5,27.5C 251.398,28.1757 250.398,28.8423 249.5,29.5 Z"/></g>
<g><path style="opacity:1" fill="#8695b1" d="M 235.5,32.5 C 233.192,34.4707 230.858,36.4707 228.5,38.5C 229.612,35.0536 231.945,33.0536 235.5,32.5 Z"/></g>
<g><path style="opacity:1" fill="#252861" d="M 181.5,51.5 C 182.747,54.8672 182.747,58.2005 181.5,61.5C 179.983,61.4894 178.816,60.8228 178,59.5C 178.053,56.3248 177.22,53.6581 175.5,51.5C 175.5,51.1667 175.5,50.8333 175.5,50.5C 170.856,37.9998 161.856,30.9998 148.5,29.5C 147.486,28.2353 145.986,27.5687 144,27.5C 140.539,28.4899 137.039,29.1566 133.5,29.5C 132.032,27.0842 131.365,24.4175 131.5,21.5C 133.277,21.2137 134.944,20.5471 136.5,19.5C 141.607,22.6944 147.274,24.1944 153.5,24C 162.084,27.6386 169.751,32.8053 176.5,39.5C 178.744,43.3136 180.411,47.3136 181.5,51.5 Z"/></g>
<g><path style="opacity:1" fill="#f6e9bf" d="M 175.5,50.5 C 175.5,50.8333 175.5,51.1667 175.5,51.5C 168.833,51.5 162.167,51.5 155.5,51.5C 147.361,51.1328 139.694,52.7995 132.5,56.5C 135.33,53.9866 138.663,52.1533 142.5,51C 153.495,50.5002 164.495,50.3335 175.5,50.5 Z"/></g>
<g><path style="opacity:1" fill="#0d125f" d="M 226.5,51.5 C 225.735,54.0961 225.401,56.7628 225.5,59.5C 225.5,59.8333 225.5,60.1667 225.5,60.5C 224.5,60.5 223.5,60.5 222.5,60.5C 222.5,57.5 222.5,54.5 222.5,51.5C 222.833,50.8333 223.167,50.1667 223.5,49.5C 225.651,45.7194 226.651,46.3861 226.5,51.5 Z"/></g>
<g><path style="opacity:1" fill="#fcc006" d="M 155.5,51.5 C 162.167,51.5 168.833,51.5 175.5,51.5C 177.22,53.6581 178.053,56.3248 178,59.5C 178.816,60.8228 179.983,61.4894 181.5,61.5C 183.402,58.6627 184.069,55.3293 183.5,51.5C 196.167,51.5 208.833,51.5 221.5,51.5C 221.5,54.8333 221.5,58.1667 221.5,61.5C 223.099,61.7678 224.432,61.4345 225.5,60.5C 225.5,60.1667 225.5,59.8333 225.5,59.5C 226.768,57.0948 227.435,54.4282 227.5,51.5C 236.5,51.5 245.5,51.5 254.5,51.5C 254.611,52.1174 254.944,52.6174 255.5,53C 257.473,53.4955 259.473,53.6621 261.5,53.5C 277.138,61.1346 287.804,73.1346 293.5,89.5C 293.5,89.8333 293.5,90.1667 293.5,90.5C 295.532,102.027 296.032,113.694 295,125.5C 293.976,128.135 293.143,130.802 292.5,133.5C 290.189,138.123 287.855,142.789 285.5,147.5C 281.05,152.781 276.05,157.614 270.5,162C 267.47,163.284 264.47,164.451 261.5,165.5C 260.244,165.461 259.244,165.961 258.5,167C 222.835,167.5 187.168,167.667 151.5,167.5C 147.447,164.686 143.114,162.02 138.5,159.5C 119.059,140.884 112.225,118.217 118,91.5C 120.64,85.3745 123.474,79.3745 126.5,73.5C 133.916,63.0692 143.583,55.7359 155.5,51.5 Z"/></g>
<g><path style="opacity:1" fill="#fee8a9" d="M 254.5,51.5 C 257.01,51.9267 259.343,52.5933 261.5,53.5C 259.473,53.6621 257.473,53.4955 255.5,53C 254.944,52.6174 254.611,52.1174 254.5,51.5 Z"/></g>
<g><path style="opacity:1" fill="#625a3f" d="M 226.5,51.5 C 226.833,51.5 227.167,51.5 227.5,51.5C 227.435,54.4282 226.768,57.0948 225.5,59.5C 225.401,56.7628 225.735,54.0961 226.5,51.5 Z"/></g>
<g><path style="opacity:1" fill="#453a55" d="M 221.5,51.5 C 221.833,51.5 222.167,51.5 222.5,51.5C 222.5,54.5 222.5,57.5 222.5,60.5C 223.5,60.5 224.5,60.5 225.5,60.5C 224.432,61.4345 223.099,61.7678 221.5,61.5C 221.5,58.1667 221.5,54.8333 221.5,51.5 Z"/></g>
<g><path style="opacity:1" fill="#827236" d="M 181.5,51.5 C 182.167,51.5 182.833,51.5 183.5,51.5C 184.069,55.3293 183.402,58.6627 181.5,61.5C 182.747,58.2005 182.747,54.8672 181.5,51.5 Z"/></g>
<g><path style="opacity:1" fill="#be8f07" d="M 155.5,51.5 C 143.583,55.7359 133.916,63.0692 126.5,73.5C 123.474,79.3745 120.64,85.3745 118,91.5C 112.225,118.217 119.059,140.884 138.5,159.5C 143.114,162.02 147.447,164.686 151.5,167.5C 149.833,167.5 148.167,167.5 146.5,167.5C 142.616,167.576 138.95,166.91 135.5,165.5C 134.817,163.824 133.483,163.157 131.5,163.5C 130.958,160.081 128.958,158.414 125.5,158.5C 117.602,152.157 111.936,144.157 108.5,134.5C 105.579,133.593 102.579,133.26 99.5,133.5C 98.5423,132.038 97.3756,130.705 96,129.5C 95.3333,117.833 95.3333,106.167 96,94.5C 97.0319,92.9733 98.1986,91.64 99.5,90.5C 102.059,90.8016 104.393,90.4682 106.5,89.5C 108.473,85.3443 110.306,81.011 112,76.5C 115.083,73.0919 117.749,69.4252 120,65.5C 123.979,62.1076 128.146,59.1076 132.5,56.5C 139.694,52.7995 147.361,51.1328 155.5,51.5 Z"/></g>
<g><path style="opacity:1" fill="#cdae1b" d="M 267.5,77.5 C 262.887,74.7354 257.887,72.7354 252.5,71.5C 251.737,70.7321 250.737,70.2321 249.5,70C 218.762,69.1751 188.095,69.3418 157.5,70.5C 172.652,69.1672 188.152,68.5006 204,68.5C 219.5,68.6667 235,68.8333 250.5,69C 254.177,69.7957 257.677,70.9623 261,72.5C 261.772,72.3552 262.439,72.0219 263,71.5C 264.458,73.6097 265.958,75.6097 267.5,77.5 Z"/></g>
<g><path style="opacity:1" fill="#6f6948" d="M 252.5,71.5 C 249.518,71.0371 246.518,70.7038 243.5,70.5C 214.475,70.1991 185.475,70.5324 156.5,71.5C 156.5,70.8333 156.833,70.5 157.5,70.5C 188.095,69.3418 218.762,69.1751 249.5,70C 250.737,70.2321 251.737,70.7321 252.5,71.5 Z"/></g>
<g><path style="opacity:1" fill="#585858" d="M 243.5,70.5 C 246.518,70.7038 249.518,71.0371 252.5,71.5C 257.887,72.7354 262.887,74.7354 267.5,77.5C 269.476,80.1482 271.476,82.8149 273.5,85.5C 276.565,90.4242 279.231,95.4242 281.5,100.5C 284.058,120.561 277.058,136.228 260.5,147.5C 256.497,148.686 252.497,149.686 248.5,150.5C 218.475,150.802 188.475,150.469 158.5,149.5C 157.209,149.737 156.209,149.404 155.5,148.5C 159.015,148.712 162.348,148.712 165.5,148.5C 146.362,136.594 139.195,119.594 144,97.5C 146.174,91.9549 149.007,86.7883 152.5,82C 156.833,78.6667 161.167,75.3333 165.5,72C 191.67,71.8322 217.67,71.3322 243.5,70.5 Z"/></g>
<g><path style="opacity:1" fill="#333e51" d="M 243.5,70.5 C 217.67,71.3322 191.67,71.8322 165.5,72C 161.167,75.3333 156.833,78.6667 152.5,82C 149.007,86.7883 146.174,91.9549 144,97.5C 139.195,119.594 146.362,136.594 165.5,148.5C 162.348,148.712 159.015,148.712 155.5,148.5C 151.722,147.723 148.389,146.056 145.5,143.5C 142.473,141.14 139.806,138.473 137.5,135.5C 135.835,132.177 134.169,128.843 132.5,125.5C 132.001,120.496 131.334,115.496 130.5,110.5C 130.874,104.715 131.874,99.0483 133.5,93.5C 133.392,91.4862 134.058,89.8195 135.5,88.5C 136.906,88.0269 137.573,87.0269 137.5,85.5C 142.128,78.5411 148.461,73.8745 156.5,71.5C 185.475,70.5324 214.475,70.1991 243.5,70.5 Z"/></g>
<g><path style="opacity:1" fill="#7e6b37" d="M 137.5,85.5 C 137.573,87.0269 136.906,88.0269 135.5,88.5C 135.427,86.9731 136.094,85.9731 137.5,85.5 Z"/></g>
<g><path style="opacity:1" fill="#b89d2a" d="M 273.5,85.5 C 274.5,85.5 275.5,85.5 276.5,85.5C 278.634,90.3169 280.3,95.3169 281.5,100.5C 279.231,95.4242 276.565,90.4242 273.5,85.5 Z"/></g>
<g><path style="opacity:1" fill="#b5a065" d="M 293.5,90.5 C 293.5,90.1667 293.5,89.8333 293.5,89.5C 298.844,89.334 304.177,89.5006 309.5,90C 311.319,90.7403 312.652,91.9069 313.5,93.5C 309.267,90.9098 304.6,89.9098 299.5,90.5C 297.5,90.5 295.5,90.5 293.5,90.5 Z"/></g>
<g><path style="opacity:1" fill="#7e5e03" d="M 99.5,90.5 C 98.1986,91.64 97.0319,92.9733 96,94.5C 95.3333,106.167 95.3333,117.833 96,129.5C 97.3756,130.705 98.5423,132.038 99.5,133.5C 95.8183,133.665 92.1516,133.499 88.5,133C 87.4293,132.148 86.4293,131.315 85.5,130.5C 84.3756,118.879 84.209,107.213 85,95.5C 88.7909,91.168 93.6242,89.5013 99.5,90.5 Z"/></g>
<g><path style="opacity:1" fill="#7f5f06" d="M 299.5,90.5 C 304.6,89.9098 309.267,90.9098 313.5,93.5C 314.167,93.5 314.833,93.5 315.5,93.5C 316.789,105.186 316.789,116.853 315.5,128.5C 314.182,129.757 312.849,131.091 311.5,132.5C 307.893,133.489 304.226,133.823 300.5,133.5C 302.134,132.028 303.634,130.362 305,128.5C 305.667,117.5 305.667,106.5 305,95.5C 303.893,92.887 302.06,91.2203 299.5,90.5 Z"/></g>
<g><path style="opacity:1" fill="#be8f02" d="M 293.5,90.5 C 295.5,90.5 297.5,90.5 299.5,90.5C 302.06,91.2203 303.893,92.887 305,95.5C 305.667,106.5 305.667,117.5 305,128.5C 303.634,130.362 302.134,132.028 300.5,133.5C 297.833,133.5 295.167,133.5 292.5,133.5C 293.143,130.802 293.976,128.135 295,125.5C 296.032,113.694 295.532,102.027 293.5,90.5 Z"/></g>
<g><path style="opacity:1" fill="#13ace7" d="M 185.5,97.5 C 176.475,101.034 173.641,107.368 177,116.5C 179.083,119.077 181.249,121.41 183.5,123.5C 179.994,124.498 176.328,124.498 172.5,123.5C 170.956,123.297 169.622,122.63 168.5,121.5C 160.866,111.201 162.532,102.701 173.5,96C 175.5,95.8333 177.5,95.6667 179.5,95.5C 181.952,95.5391 183.952,96.2057 185.5,97.5 Z"/></g>
<g><path style="opacity:1" fill="#13ade8" d="M 237.5,97.5 C 232.905,98.2459 229.738,100.913 228,105.5C 227.04,110.362 227.873,114.862 230.5,119C 231.448,119.483 232.448,119.649 233.5,119.5C 233.527,121.199 234.194,122.533 235.5,123.5C 221.428,125.592 214.928,119.592 216,105.5C 220.829,95.8134 227.996,93.1468 237.5,97.5 Z"/></g>
<g><path style="opacity:1" fill="#60d6fb" d="M 237.5,97.5 C 239.966,98.2977 241.966,99.631 243.5,101.5C 245.143,105.3 245.81,109.3 245.5,113.5C 244.207,118.794 240.873,122.127 235.5,123.5C 234.194,122.533 233.527,121.199 233.5,119.5C 232.448,119.649 231.448,119.483 230.5,119C 227.873,114.862 227.04,110.362 228,105.5C 229.738,100.913 232.905,98.2459 237.5,97.5 Z"/></g>
<g><path style="opacity:1" fill="#9b8251" d="M 106.5,89.5 C 104.393,90.4682 102.059,90.8016 99.5,90.5C 93.6242,89.5013 88.7909,91.168 85,95.5C 84.209,107.213 84.3756,118.879 85.5,130.5C 84.8826,130.389 84.3826,130.056 84,129.5C 83.3333,117.833 83.3333,106.167 84,94.5C 85.3199,92.3456 87.1532,90.8456 89.5,90C 95.1569,89.5006 100.824,89.3339 106.5,89.5 Z"/></g>
<g><path style="opacity:1" fill="#5fd5fa" d="M 185.5,97.5 C 195.735,101.48 198.235,108.48 193,118.5C 191.188,120.3 189.355,121.967 187.5,123.5C 186.167,123.5 184.833,123.5 183.5,123.5C 181.249,121.41 179.083,119.077 177,116.5C 173.641,107.368 176.475,101.034 185.5,97.5 Z"/></g>
<g><path style="opacity:1" fill="#bdac79" d="M 315.5,93.5 C 316.268,94.2625 316.768,95.2625 317,96.5C 317.667,106.833 317.667,117.167 317,127.5C 316.617,128.056 316.117,128.389 315.5,128.5C 316.789,116.853 316.789,105.186 315.5,93.5 Z"/></g>
<g><path style="opacity:1" fill="#4d4e48" d="M 133.5,93.5 C 131.874,99.0483 130.874,104.715 130.5,110.5C 131.334,115.496 132.001,120.496 132.5,125.5C 129.332,117.23 128.666,108.563 130.5,99.5C 131.015,97.2488 132.015,95.2488 133.5,93.5 Z"/></g>
<g><path style="opacity:1" fill="#5e9aa7" d="M 243.5,101.5 C 247.641,105.17 248.308,109.17 245.5,113.5C 245.81,109.3 245.143,105.3 243.5,101.5 Z"/></g>
<g><path style="opacity:1" fill="#dab614" d="M 130.5,99.5 C 128.666,108.563 129.332,117.23 132.5,125.5C 134.169,128.843 135.835,132.177 137.5,135.5C 135.088,135.306 134.088,133.973 134.5,131.5C 133.5,131.5 132.5,131.5 131.5,131.5C 129.369,128.79 128.036,125.624 127.5,122C 127.823,114.177 128.823,106.677 130.5,99.5 Z"/></g>
<g><path style="opacity:1" fill="#417f95" d="M 172.5,123.5 C 176.328,124.498 179.994,124.498 183.5,123.5C 184.833,123.5 186.167,123.5 187.5,123.5C 185.366,125.033 182.866,125.7 180,125.5C 177.134,125.7 174.634,125.033 172.5,123.5 Z"/></g>
<g><path style="opacity:1" fill="#9ea9c1" d="M 89.5,142.5 C 83.0219,142.233 76.6886,142.9 70.5,144.5C 71.9488,142.836 73.9488,142.002 76.5,142C 81.0204,141.186 85.3537,141.353 89.5,142.5 Z"/></g>
<g><path style="opacity:1" fill="#6f7aa0" d="M 325.5,143.5 C 319.833,143.5 314.167,143.5 308.5,143.5C 310.634,141.967 313.134,141.3 316,141.5C 319.451,141.421 322.618,142.087 325.5,143.5 Z"/></g>
<g><path style="opacity:1" fill="#959db8" d="M 327.5,143.5 C 332.088,143.472 335.422,145.472 337.5,149.5C 335.172,147.7 332.505,146.533 329.5,146C 328.619,145.292 327.953,144.458 327.5,143.5 Z"/></g>
<g><path style="opacity:1" fill="#2c326b" d="M 89.5,142.5 C 96.3243,143.912 102.324,146.912 107.5,151.5C 104.105,150.023 103.439,150.356 105.5,152.5C 104.998,153.521 104.332,153.688 103.5,153C 102.62,151.644 102.286,150.144 102.5,148.5C 100.334,148.421 98.3337,147.754 96.5,146.5C 93.8087,148.252 93.142,147.752 94.5,145C 87.1667,144.333 79.8333,144.333 72.5,145C 70.9698,146.12 69.3032,146.954 67.5,147.5C 68.0998,146.1 69.0998,145.1 70.5,144.5C 76.6886,142.9 83.0219,142.233 89.5,142.5 Z"/></g>
<g><path style="opacity:1" fill="#bda11f" d="M 145.5,143.5 C 148.389,146.056 151.722,147.723 155.5,148.5C 156.209,149.404 157.209,149.737 158.5,149.5C 158.5,149.833 158.5,150.167 158.5,150.5C 153.913,149.875 149.58,148.542 145.5,146.5C 145.5,145.5 145.5,144.5 145.5,143.5 Z"/></g>
<g><path style="opacity:1" fill="#8d7e37" d="M 158.5,150.5 C 158.5,150.167 158.5,149.833 158.5,149.5C 188.475,150.469 218.475,150.802 248.5,150.5C 218.627,151.821 188.627,151.821 158.5,150.5 Z"/></g>
<g><path style="opacity:1" fill="#d5b417" d="M 260.5,147.5 C 257.563,149.589 254.23,151.089 250.5,152C 220.167,152.667 189.833,152.667 159.5,152C 158.944,151.617 158.611,151.117 158.5,150.5C 188.627,151.821 218.627,151.821 248.5,150.5C 252.497,149.686 256.497,148.686 260.5,147.5 Z"/></g>
<g><path style="opacity:1" fill="#fcf0cb" d="M 97.5,153.5 C 98.8734,153.343 100.207,153.51 101.5,154C 110.336,160.162 119.669,165.495 129.5,170C 135.318,173.654 140.318,178.154 144.5,183.5C 139.688,187.307 136.021,191.973 133.5,197.5C 132.504,197.414 131.671,197.748 131,198.5C 130.023,200.74 129.523,203.073 129.5,205.5C 127.824,206.183 127.157,207.517 127.5,209.5C 126.883,209.611 126.383,209.944 126,210.5C 121.556,222.754 120.39,235.421 122.5,248.5C 121.831,252 121.664,255.667 122,259.5C 121.005,260.066 120.172,260.733 119.5,261.5C 113.442,265.709 107.109,269.709 100.5,273.5C 93.4141,277.19 85.7475,278.523 77.5,277.5C 74.194,277.181 71.5274,275.847 69.5,273.5C 66.7049,270.769 63.3716,269.102 59.5,268.5C 50.2777,263.252 40.9443,257.919 31.5,252.5C 27.2859,249.973 25.2859,246.306 25.5,241.5C 24.1781,222.804 24.1781,204.137 25.5,185.5C 25.5,184.5 25.5,183.5 25.5,182.5C 29.1364,178.494 33.1364,174.827 37.5,171.5C 44.0403,167.7 50.7069,164.033 57.5,160.5C 58.8734,160.657 60.2068,160.49 61.5,160C 72.1575,150.007 84.1575,147.841 97.5,153.5 Z"/></g>
<g><path style="opacity:1" fill="#fcf0cc" d="M 329.5,153.5 C 331.601,157.279 334.935,159.113 339.5,159C 341.746,161.289 344.413,162.789 347.5,163.5C 356.083,167.126 364.083,171.793 371.5,177.5C 374.803,200.017 375.47,222.684 373.5,245.5C 373.174,247.661 372.174,249.494 370.5,251C 366.548,254.249 362.215,256.749 357.5,258.5C 355.456,259.508 353.456,260.508 351.5,261.5C 350.218,263.18 348.551,264.513 346.5,265.5C 343.053,266.083 340.053,267.416 337.5,269.5C 336.218,271.18 334.551,272.513 332.5,273.5C 329.881,273.925 327.547,274.925 325.5,276.5C 319.463,276.829 313.463,276.496 307.5,275.5C 304.343,272.032 300.343,270.365 295.5,270.5C 290.773,267.501 286.106,264.501 281.5,261.5C 277.666,259.397 275.666,256.063 275.5,251.5C 277.34,244.399 277.84,237.065 277,229.5C 276.722,228.584 276.222,227.918 275.5,227.5C 275.889,224.447 275.223,221.78 273.5,219.5C 273.662,217.473 273.495,215.473 273,213.5C 272.617,212.944 272.117,212.611 271.5,212.5C 270.895,207.739 269.229,203.405 266.5,199.5C 266.167,198.833 265.833,198.167 265.5,197.5C 263.851,194.88 262.185,192.213 260.5,189.5C 258.725,188.162 257.059,186.829 255.5,185.5C 256.833,184.167 258.167,182.833 259.5,181.5C 262.151,179.349 264.651,177.016 267,174.5C 270.205,173.461 273.038,171.794 275.5,169.5C 278.418,168.13 281.418,167.13 284.5,166.5C 284.5,165.5 284.5,164.5 284.5,163.5C 290.29,159.433 296.29,155.599 302.5,152C 303.793,151.51 305.127,151.343 306.5,151.5C 314.499,149.643 322.166,150.31 329.5,153.5 Z"/></g>
<g><path style="opacity:1" fill="#b5bacd" d="M 345.5,153.5 C 348.953,153.537 351.619,154.871 353.5,157.5C 350.148,157.47 347.482,156.137 345.5,153.5 Z"/></g>
<g><path style="opacity:1" fill="#eae1c1" d="M 285.5,147.5 C 283.569,152.739 280.236,156.739 275.5,159.5C 272.559,162.312 269.226,164.645 265.5,166.5C 263.486,166.392 261.82,167.058 260.5,168.5C 260.557,167.391 260.89,166.391 261.5,165.5C 264.47,164.451 267.47,163.284 270.5,162C 276.05,157.614 281.05,152.781 285.5,147.5 Z"/></g>
<g><path style="opacity:1" fill="#d4b671" d="M 125.5,158.5 C 128.958,158.414 130.958,160.081 131.5,163.5C 129.147,162.66 127.147,161.326 125.5,159.5C 125.5,159.167 125.5,158.833 125.5,158.5 Z"/></g>
<g><path style="opacity:1" fill="#9198b0" d="M 131.5,163.5 C 133.483,163.157 134.817,163.824 135.5,165.5C 137.662,166.128 139.328,167.461 140.5,169.5C 137.743,167.914 134.743,166.914 131.5,166.5C 131.5,165.5 131.5,164.5 131.5,163.5 Z"/></g>
<g><path style="opacity:1" fill="#fde498" d="M 261.5,165.5 C 260.89,166.391 260.557,167.391 260.5,168.5C 259.833,168.5 259.167,168.5 258.5,168.5C 221.852,169.635 185.185,169.801 148.5,169C 147.584,168.722 146.918,168.222 146.5,167.5C 148.167,167.5 149.833,167.5 151.5,167.5C 187.168,167.667 222.835,167.5 258.5,167C 259.244,165.961 260.244,165.461 261.5,165.5 Z"/></g>
<g><path style="opacity:1" fill="#fbfbf8" d="M 135.5,165.5 C 138.95,166.91 142.616,167.576 146.5,167.5C 146.918,168.222 147.584,168.722 148.5,169C 185.185,169.801 221.852,169.635 258.5,168.5C 257.083,170.844 255.75,173.177 254.5,175.5C 252.018,177.503 251.018,180.169 251.5,183.5C 250.395,182.4 249.062,181.733 247.5,181.5C 242.507,179.217 237.174,177.717 231.5,177C 208.502,175.092 185.502,175.092 162.5,177C 160.825,177.985 159.158,178.819 157.5,179.5C 154.733,179.858 152.067,180.525 149.5,181.5C 149.167,181.5 148.833,181.5 148.5,181.5C 147.43,176.431 144.763,172.431 140.5,169.5C 139.328,167.461 137.662,166.128 135.5,165.5 Z"/></g>
<g><path style="opacity:1" fill="#959db6" d="M 265.5,166.5 C 261.246,168.781 257.579,171.781 254.5,175.5C 255.75,173.177 257.083,170.844 258.5,168.5C 259.167,168.5 259.833,168.5 260.5,168.5C 261.82,167.058 263.486,166.392 265.5,166.5 Z"/></g>
<g><path style="opacity:1" fill="#9ba5bd" d="M 29.5,168.5 C 26.1667,171.167 23.1667,174.167 20.5,177.5C 20.238,176.022 20.5713,174.689 21.5,173.5C 23.1667,172.5 24.5,171.167 25.5,169.5C 26.6888,168.571 28.0222,168.238 29.5,168.5 Z"/></g>
<g><path style="opacity:1" fill="#fef0c3" d="M 247.5,181.5 C 242.868,180.624 238.201,179.957 233.5,179.5C 232.737,178.732 231.737,178.232 230.5,178C 205.991,175.755 181.658,176.255 157.5,179.5C 159.158,178.819 160.825,177.985 162.5,177C 185.502,175.092 208.502,175.092 231.5,177C 237.174,177.717 242.507,179.217 247.5,181.5 Z"/></g>
<g><path style="opacity:1" fill="#fcc004" d="M 201.5,178.5 C 212.198,178.263 222.865,178.596 233.5,179.5C 238.201,179.957 242.868,180.624 247.5,181.5C 249.062,181.733 250.395,182.4 251.5,183.5C 252.605,184.6 253.938,185.267 255.5,185.5C 257.059,186.829 258.725,188.162 260.5,189.5C 262.185,192.213 263.851,194.88 265.5,197.5C 264.833,197.5 264.167,197.5 263.5,197.5C 226.861,199.201 190.194,199.868 153.5,199.5C 153.5,198.833 153.167,198.5 152.5,198.5C 150.67,194.508 151.67,191.342 155.5,189C 164.721,184.541 174.387,181.541 184.5,180C 190.348,179.827 196.015,179.327 201.5,178.5 Z"/></g>
<g><path style="opacity:1" fill="#f2c546" d="M 233.5,179.5 C 222.865,178.596 212.198,178.263 201.5,178.5C 186.752,178.089 172.085,178.923 157.5,181C 154.881,181.151 152.547,181.985 150.5,183.5C 149.702,183.043 149.369,182.376 149.5,181.5C 152.067,180.525 154.733,179.858 157.5,179.5C 181.658,176.255 205.991,175.755 230.5,178C 231.737,178.232 232.737,178.732 233.5,179.5 Z"/></g>
<g><path style="opacity:1" fill="#c29207" d="M 201.5,178.5 C 196.015,179.327 190.348,179.827 184.5,180C 174.387,181.541 164.721,184.541 155.5,189C 151.67,191.342 150.67,194.508 152.5,198.5C 148.534,197.838 144.534,197.505 140.5,197.5C 138.167,197.5 135.833,197.5 133.5,197.5C 136.021,191.973 139.688,187.307 144.5,183.5C 146.153,183.34 147.486,182.674 148.5,181.5C 148.833,181.5 149.167,181.5 149.5,181.5C 149.369,182.376 149.702,183.043 150.5,183.5C 152.547,181.985 154.881,181.151 157.5,181C 172.085,178.923 186.752,178.089 201.5,178.5 Z"/></g>
<g><path style="opacity:1" fill="#bbbcc9" d="M 379.5,175.5 C 381.669,178.098 383.169,181.098 384,184.5C 384.829,203.671 384.662,222.671 383.5,241.5C 383.83,222.659 383.497,203.993 382.5,185.5C 381.714,182.157 380.714,178.823 379.5,175.5 Z"/></g>
<g><path style="opacity:1" fill="#d7d9c3" d="M 371.5,177.5 C 373.45,179.43 374.783,181.763 375.5,184.5C 376.461,202.799 376.794,221.132 376.5,239.5C 376.06,241.844 375.06,243.844 373.5,245.5C 375.47,222.684 374.803,200.017 371.5,177.5 Z"/></g>
<g><path style="opacity:1" fill="#141f5a" d="M 308.5,143.5 C 314.167,143.5 319.833,143.5 325.5,143.5C 326.167,143.5 326.833,143.5 327.5,143.5C 327.953,144.458 328.619,145.292 329.5,146C 332.505,146.533 335.172,147.7 337.5,149.5C 340.167,150.833 342.833,152.167 345.5,153.5C 347.482,156.137 350.148,157.47 353.5,157.5C 355.695,159.294 358.028,161.127 360.5,163C 364.079,164.123 367.413,165.79 370.5,168C 373.417,170.764 376.417,173.264 379.5,175.5C 380.714,178.823 381.714,182.157 382.5,185.5C 382.667,204.503 382.5,223.503 382,242.5C 380.711,244.645 379.878,246.978 379.5,249.5C 377.782,251.223 376.449,253.223 375.5,255.5C 373.225,256.111 371.559,257.445 370.5,259.5C 364.573,262.434 358.907,265.767 353.5,269.5C 345.151,273.339 337.151,277.672 329.5,282.5C 322.196,283.302 314.862,283.635 307.5,283.5C 304.794,283.425 302.127,283.092 299.5,282.5C 299.5,281.5 299.5,280.5 299.5,279.5C 291.853,275.651 284.186,271.651 276.5,267.5C 275.426,266.115 274.093,264.949 272.5,264C 273.099,262.378 273.766,260.878 274.5,259.5C 276.737,260.449 279.071,261.116 281.5,261.5C 286.106,264.501 290.773,267.501 295.5,270.5C 298.467,272.989 301.8,274.989 305.5,276.5C 312.134,277.497 318.8,277.83 325.5,277.5C 328.1,276.532 330.434,275.199 332.5,273.5C 334.551,272.513 336.218,271.18 337.5,269.5C 338.873,269.657 340.207,269.49 341.5,269C 343.431,268.098 345.097,266.931 346.5,265.5C 348.551,264.513 350.218,263.18 351.5,261.5C 354.313,261.975 356.313,260.975 357.5,258.5C 362.215,256.749 366.548,254.249 370.5,251C 372.174,249.494 373.174,247.661 373.5,245.5C 375.06,243.844 376.06,241.844 376.5,239.5C 377.662,222.005 377.829,204.338 377,186.5C 376.722,185.584 376.222,184.918 375.5,184.5C 374.783,181.763 373.45,179.43 371.5,177.5C 364.083,171.793 356.083,167.126 347.5,163.5C 342.329,158.869 336.329,155.536 329.5,153.5C 328.652,151.907 327.319,150.74 325.5,150C 319.5,149.333 313.5,149.333 307.5,150C 306.944,150.383 306.611,150.883 306.5,151.5C 305.127,151.343 303.793,151.51 302.5,152C 296.29,155.599 290.29,159.433 284.5,163.5C 277.746,166.718 271.079,170.218 264.5,174C 262.013,175.977 260.346,178.477 259.5,181.5C 258.167,182.833 256.833,184.167 255.5,185.5C 253.938,185.267 252.605,184.6 251.5,183.5C 251.018,180.169 252.018,177.503 254.5,175.5C 257.579,171.781 261.246,168.781 265.5,166.5C 269.226,164.645 272.559,162.312 275.5,159.5C 278.014,159.246 280.348,158.413 282.5,157C 290.237,150.632 298.903,146.132 308.5,143.5 Z"/></g>
<g><path style="opacity:1" fill="#bfc0bb" d="M 284.5,163.5 C 284.5,164.5 284.5,165.5 284.5,166.5C 281.418,167.13 278.418,168.13 275.5,169.5C 273.038,171.794 270.205,173.461 267,174.5C 264.651,177.016 262.151,179.349 259.5,181.5C 260.346,178.477 262.013,175.977 264.5,174C 271.079,170.218 277.746,166.718 284.5,163.5 Z"/></g>
<g><path style="opacity:1" fill="#d0d0c0" d="M 329.5,153.5 C 336.329,155.536 342.329,158.869 347.5,163.5C 344.413,162.789 341.746,161.289 339.5,159C 334.935,159.113 331.601,157.279 329.5,153.5 Z"/></g>
<g><path style="opacity:1" fill="#bbc0b8" d="M 329.5,153.5 C 322.166,150.31 314.499,149.643 306.5,151.5C 306.611,150.883 306.944,150.383 307.5,150C 313.5,149.333 319.5,149.333 325.5,150C 327.319,150.74 328.652,151.907 329.5,153.5 Z"/></g>
<g><path style="opacity:1" fill="#979fb6" d="M 17.5,188.5 C 17.1698,207.008 17.5032,225.341 18.5,243.5C 19.3414,245.379 19.6747,247.379 19.5,249.5C 18.8386,248.282 18.1719,246.949 17.5,245.5C 16.1723,226.338 16.1723,207.338 17.5,188.5 Z"/></g>
<g><path style="opacity:1" fill="#343765" d="M 19.5,181.5 C 18.523,202.121 18.1897,222.787 18.5,243.5C 17.5032,225.341 17.1698,207.008 17.5,188.5C 17.3379,186.473 17.5045,184.473 18,182.5C 18.3826,181.944 18.8826,181.611 19.5,181.5 Z"/></g>
<g><path style="opacity:1" fill="#babab8" d="M 25.5,185.5 C 24.1781,204.137 24.1781,222.804 25.5,241.5C 24.8826,241.389 24.3826,241.056 24,240.5C 23.8333,231.333 23.6667,222.167 23.5,213C 23.5017,203.475 24.1683,194.308 25.5,185.5 Z"/></g>
<g><path style="opacity:1" fill="#7e8290" d="M 375.5,184.5 C 376.222,184.918 376.722,185.584 377,186.5C 377.829,204.338 377.662,222.005 376.5,239.5C 376.794,221.132 376.461,202.799 375.5,184.5 Z"/></g>
<g><path style="opacity:1" fill="#434464" d="M 382.5,185.5 C 383.497,203.993 383.83,222.659 383.5,241.5C 382.459,244.391 381.126,247.058 379.5,249.5C 379.878,246.978 380.711,244.645 382,242.5C 382.5,223.503 382.667,204.503 382.5,185.5 Z"/></g>
<g><path style="opacity:1" fill="#7e5f01" d="M 90.5,192.5 C 95.126,192.469 98.7927,194.136 101.5,197.5C 100.262,196.588 98.9285,196.421 97.5,197C 99.617,199.564 102.284,201.398 105.5,202.5C 107.314,204.721 108.981,207.054 110.5,209.5C 111.595,216.616 112.929,223.616 114.5,230.5C 113.965,232.271 113.131,232.604 112,231.5C 107.023,243.083 98.1894,249.417 85.5,250.5C 76.4441,250.328 68.9441,246.994 63,240.5C 62.5172,239.552 62.3505,238.552 62.5,237.5C 65.5645,236.629 68.5645,235.462 71.5,234C 70.8333,233.667 70.1667,233.333 69.5,233C 70.9285,232.421 72.2618,232.588 73.5,233.5C 74.7777,233.782 75.7777,234.449 76.5,235.5C 78.6033,237.899 81.27,239.566 84.5,240.5C 88.0605,239.193 91.7272,238.36 95.5,238C 97.4136,236.587 98.7469,234.753 99.5,232.5C 100.325,231.614 101.325,231.281 102.5,231.5C 104.315,224.841 103.649,218.507 100.5,212.5C 97.6723,210.172 95.0057,207.672 92.5,205C 86.0383,202.66 80.0383,203.493 74.5,207.5C 69.0993,205.412 67.766,202.079 70.5,197.5C 74.1879,197.219 77.8546,196.719 81.5,196C 79.5,195.667 77.5,195.333 75.5,195C 80.4657,193.853 85.4657,193.02 90.5,192.5 Z"/></g>
<g><path style="opacity:1" fill="#7f5f0b" d="M 304.5,193.5 C 315.648,191.765 325.315,194.598 333.5,202C 330.671,205.995 327.338,209.495 323.5,212.5C 321.792,212.297 320.459,211.464 319.5,210C 303.4,206.769 296.234,213.269 298,229.5C 302.452,237.641 309.285,240.808 318.5,239C 321.317,236.683 323.984,234.183 326.5,231.5C 329.988,234.079 333.655,236.413 337.5,238.5C 338.326,239.451 338.492,240.451 338,241.5C 320.859,260.117 303.693,260.117 286.5,241.5C 276.593,219.195 282.593,203.195 304.5,193.5 Z"/></g>
<g><path style="opacity:1" fill="#81621c" d="M 90.5,192.5 C 85.4657,193.02 80.4657,193.853 75.5,195C 77.5,195.333 79.5,195.667 81.5,196C 77.8546,196.719 74.1879,197.219 70.5,197.5C 67.766,202.079 69.0993,205.412 74.5,207.5C 80.0383,203.493 86.0383,202.66 92.5,205C 95.0057,207.672 97.6723,210.172 100.5,212.5C 103.649,218.507 104.315,224.841 102.5,231.5C 101.325,231.281 100.325,231.614 99.5,232.5C 98.7469,234.753 97.4136,236.587 95.5,238C 91.7272,238.36 88.0605,239.193 84.5,240.5C 81.27,239.566 78.6033,237.899 76.5,235.5C 81.5868,237.496 86.9201,237.996 92.5,237C 99.3962,231.402 101.396,224.235 98.5,215.5C 96.7036,212.579 94.3703,210.079 91.5,208C 85.1942,206.578 79.5275,207.744 74.5,211.5C 70.7817,208.11 67.115,204.777 63.5,201.5C 65.7176,198.058 68.7176,195.558 72.5,194C 78.5133,191.666 84.5133,191.166 90.5,192.5 Z"/></g>
<g><path style="opacity:1" fill="#b7a061" d="M 133.5,197.5 C 132.73,200.496 131.396,203.163 129.5,205.5C 129.523,203.073 130.023,200.74 131,198.5C 131.671,197.748 132.504,197.414 133.5,197.5 Z"/></g>
<g><path style="opacity:1" fill="#323d50" d="M 133.5,197.5 C 135.833,197.5 138.167,197.5 140.5,197.5C 140.611,198.117 140.944,198.617 141.5,199C 145.486,199.499 149.486,199.666 153.5,199.5C 188.689,202.239 224.022,202.073 259.5,199C 261.058,198.79 262.391,198.29 263.5,197.5C 264.167,197.5 264.833,197.5 265.5,197.5C 265.833,198.167 266.167,198.833 266.5,199.5C 269.229,203.405 270.895,207.739 271.5,212.5C 272.32,216.279 270.987,218.612 267.5,219.5C 264.833,219.5 262.167,219.5 259.5,219.5C 254.269,219.444 249.269,220.111 244.5,221.5C 237.5,221.5 230.5,221.5 223.5,221.5C 206.833,221.5 190.167,221.5 173.5,221.5C 168.167,221.5 162.833,221.5 157.5,221.5C 153.433,219.946 149.1,219.28 144.5,219.5C 143.5,219.5 142.5,219.5 141.5,219.5C 137.081,218.028 132.414,217.362 127.5,217.5C 128.761,213.626 129.428,209.626 129.5,205.5C 131.396,203.163 132.73,200.496 133.5,197.5 Z"/></g>
<g><path style="opacity:1" fill="#b49522" d="M 263.5,197.5 C 262.391,198.29 261.058,198.79 259.5,199C 224.022,202.073 188.689,202.239 153.5,199.5C 190.194,199.868 226.861,199.201 263.5,197.5 Z"/></g>
<g><path style="opacity:1" fill="#75652c" d="M 140.5,197.5 C 144.534,197.505 148.534,197.838 152.5,198.5C 153.167,198.5 153.5,198.833 153.5,199.5C 149.486,199.666 145.486,199.499 141.5,199C 140.944,198.617 140.611,198.117 140.5,197.5 Z"/></g>
<g><path style="opacity:1" fill="#223255" d="M 266.5,199.5 C 266.649,200.552 266.483,201.552 266,202.5C 264.6,201.884 263.1,201.551 261.5,201.5C 256.178,202.11 250.844,202.61 245.5,203C 219.5,203.667 193.5,203.667 167.5,203C 200.698,203.275 233.698,202.109 266.5,199.5 Z"/></g>
<g><path style="opacity:1" fill="#856c2a" d="M 129.5,205.5 C 129.428,209.626 128.761,213.626 127.5,217.5C 126.343,214.974 126.343,212.307 127.5,209.5C 127.157,207.517 127.824,206.183 129.5,205.5 Z"/></g>
<g><path style="opacity:1" fill="#84723a" d="M 271.5,212.5 C 272.117,212.611 272.617,212.944 273,213.5C 273.495,215.473 273.662,217.473 273.5,219.5C 271.5,219.5 269.5,219.5 267.5,219.5C 270.987,218.612 272.32,216.279 271.5,212.5 Z"/></g>
<g><path style="opacity:1" fill="#56533d" d="M 127.5,217.5 C 132.414,217.362 137.081,218.028 141.5,219.5C 136.566,219.771 131.9,219.104 127.5,217.5 Z"/></g>
<g><path style="opacity:1" fill="#786f34" d="M 144.5,220.5 C 144.5,220.167 144.5,219.833 144.5,219.5C 149.1,219.28 153.433,219.946 157.5,221.5C 153.131,221.533 148.798,221.2 144.5,220.5 Z"/></g>
<g><path style="opacity:1" fill="#917e2c" d="M 259.5,219.5 C 255.119,221.211 250.453,221.877 245.5,221.5C 245.167,221.5 244.833,221.5 244.5,221.5C 249.269,220.111 254.269,219.444 259.5,219.5 Z"/></g>
<g><path style="opacity:1" fill="#c0910f" d="M 127.5,209.5 C 126.343,212.307 126.343,214.974 127.5,217.5C 131.9,219.104 136.566,219.771 141.5,219.5C 142.5,219.5 143.5,219.5 144.5,219.5C 144.5,219.833 144.5,220.167 144.5,220.5C 142.167,220.5 139.833,220.5 137.5,220.5C 135.724,230.041 135.057,239.707 135.5,249.5C 133.167,249.5 130.833,249.5 128.5,249.5C 126.833,249.5 125.167,249.5 123.5,249.5C 123.5,248.833 123.167,248.5 122.5,248.5C 120.39,235.421 121.556,222.754 126,210.5C 126.383,209.944 126.883,209.611 127.5,209.5 Z"/></g>
<g><path style="opacity:1" fill="#fec001" d="M 259.5,219.5 C 262.167,219.5 264.833,219.5 267.5,219.5C 269.5,219.5 271.5,219.5 273.5,219.5C 275.223,221.78 275.889,224.447 275.5,227.5C 275.5,235.5 275.5,243.5 275.5,251.5C 274.833,251.5 274.167,251.5 273.5,251.5C 273.5,251.167 273.5,250.833 273.5,250.5C 272.081,249.549 270.415,249.216 268.5,249.5C 248.676,250.474 229.01,251.474 209.5,252.5C 202.833,252.5 196.167,252.5 189.5,252.5C 171.674,250.974 153.674,249.974 135.5,249.5C 135.057,239.707 135.724,230.041 137.5,220.5C 139.833,220.5 142.167,220.5 144.5,220.5C 144.611,221.117 144.944,221.617 145.5,222C 171.803,223.973 198.137,224.64 224.5,224C 231.64,223.098 238.64,222.265 245.5,221.5C 250.453,221.877 255.119,221.211 259.5,219.5 Z"/></g>
<g><path style="opacity:1" fill="#d8b410" d="M 144.5,220.5 C 148.798,221.2 153.131,221.533 157.5,221.5C 162.833,221.5 168.167,221.5 173.5,221.5C 175.292,222.309 177.292,222.809 179.5,223C 186.833,223.167 194.167,223.333 201.5,223.5C 209.198,223.497 216.532,222.831 223.5,221.5C 230.5,221.5 237.5,221.5 244.5,221.5C 244.833,221.5 245.167,221.5 245.5,221.5C 238.64,222.265 231.64,223.098 224.5,224C 198.137,224.64 171.803,223.973 145.5,222C 144.944,221.617 144.611,221.117 144.5,220.5 Z"/></g>
<g><path style="opacity:1" fill="#99862a" d="M 173.5,221.5 C 190.167,221.5 206.833,221.5 223.5,221.5C 216.532,222.831 209.198,223.497 201.5,223.5C 194.167,223.333 186.833,223.167 179.5,223C 177.292,222.809 175.292,222.309 173.5,221.5 Z"/></g>
<g><path style="opacity:1" fill="#ffe49a" d="M 275.5,227.5 C 276.222,227.918 276.722,228.584 277,229.5C 277.84,237.065 277.34,244.399 275.5,251.5C 275.5,243.5 275.5,235.5 275.5,227.5 Z"/></g>
<g><path style="opacity:1" fill="#7d5d16" d="M 101.5,197.5 C 114.633,205.575 119.133,217.241 115,232.5C 104.317,252.745 88.484,258.078 67.5,248.5C 63.7881,245.789 60.7881,242.456 58.5,238.5C 61.9846,235.363 65.9846,233.03 70.5,231.5C 72.0296,231.64 73.0296,232.307 73.5,233.5C 72.2618,232.588 70.9285,232.421 69.5,233C 70.1667,233.333 70.8333,233.667 71.5,234C 68.5645,235.462 65.5645,236.629 62.5,237.5C 62.3505,238.552 62.5172,239.552 63,240.5C 68.9441,246.994 76.4441,250.328 85.5,250.5C 98.1894,249.417 107.023,243.083 112,231.5C 113.131,232.604 113.965,232.271 114.5,230.5C 112.929,223.616 111.595,216.616 110.5,209.5C 108.981,207.054 107.314,204.721 105.5,202.5C 102.284,201.398 99.617,199.564 97.5,197C 98.9285,196.421 100.262,196.588 101.5,197.5 Z"/></g>
<g><path style="opacity:1" fill="#72632f" d="M 128.5,249.5 C 130.833,249.5 133.167,249.5 135.5,249.5C 136.5,250.167 137.5,250.833 138.5,251.5C 134.96,251.247 131.627,250.581 128.5,249.5 Z"/></g>
<g><path style="opacity:1" fill="#999a97" d="M 122.5,248.5 C 123.167,248.5 123.5,248.833 123.5,249.5C 123.617,253.372 123.284,257.372 122.5,261.5C 121.5,261.5 120.5,261.5 119.5,261.5C 120.172,260.733 121.005,260.066 122,259.5C 121.664,255.667 121.831,252 122.5,248.5 Z"/></g>
<g><path style="opacity:1" fill="#d8b210" d="M 135.5,249.5 C 153.674,249.974 171.674,250.974 189.5,252.5C 175.495,252.333 161.495,252 147.5,251.5C 144.5,251.5 141.5,251.5 138.5,251.5C 137.5,250.833 136.5,250.167 135.5,249.5 Z"/></g>
<g><path style="opacity:1" fill="#c6a219" d="M 268.5,249.5 C 267.048,250.302 265.382,250.802 263.5,251C 251.497,251.5 239.497,252 227.5,252.5C 221.5,252.5 215.5,252.5 209.5,252.5C 229.01,251.474 248.676,250.474 268.5,249.5 Z"/></g>
<g><path style="opacity:1" fill="#343f4f" d="M 123.5,249.5 C 125.167,249.5 126.833,249.5 128.5,249.5C 131.627,250.581 134.96,251.247 138.5,251.5C 141.5,251.5 144.5,251.5 147.5,251.5C 147.5,251.833 147.5,252.167 147.5,252.5C 143.154,252.334 138.821,252.501 134.5,253C 139.631,253.465 144.631,254.465 149.5,256C 175.5,256.667 201.5,256.667 227.5,256C 242.921,254.712 258.587,254.545 274.5,255.5C 274.5,256.833 274.5,258.167 274.5,259.5C 273.766,260.878 273.099,262.378 272.5,264C 274.093,264.949 275.426,266.115 276.5,267.5C 274.883,266.962 273.216,266.629 271.5,266.5C 270.903,269.374 269.569,271.708 267.5,273.5C 265.097,273.448 262.764,273.781 260.5,274.5C 254.705,273.17 248.538,272.504 242,272.5C 234.224,272.92 226.557,272.92 219,272.5C 218.25,273.126 217.416,273.626 216.5,274C 210.5,274.167 204.5,274.333 198.5,274.5C 178.537,272.811 158.537,272.311 138.5,273C 137.833,273.333 137.167,273.667 136.5,274C 167.478,275.695 198.478,276.528 229.5,276.5C 205.672,277.498 181.672,277.831 157.5,277.5C 155.585,277.784 153.919,277.451 152.5,276.5C 146.355,275.51 140.022,275.177 133.5,275.5C 131.983,275.489 130.816,274.823 130,273.5C 128.992,270.696 127.492,268.363 125.5,266.5C 126.084,263.715 125.084,262.048 122.5,261.5C 123.284,257.372 123.617,253.372 123.5,249.5 Z"/></g>
<g><path style="opacity:1" fill="#9f8425" d="M 147.5,252.5 C 147.5,252.167 147.5,251.833 147.5,251.5C 161.495,252 175.495,252.333 189.5,252.5C 196.167,252.5 202.833,252.5 209.5,252.5C 215.5,252.5 221.5,252.5 227.5,252.5C 202.989,253.768 178.322,253.768 153.5,252.5C 151.5,252.5 149.5,252.5 147.5,252.5 Z"/></g>
<g><path style="opacity:1" fill="#434748" d="M 268.5,249.5 C 270.415,249.216 272.081,249.549 273.5,250.5C 246.992,253.818 220.325,255.152 193.5,254.5C 179.816,254.499 166.483,253.833 153.5,252.5C 178.322,253.768 202.989,253.768 227.5,252.5C 239.497,252 251.497,251.5 263.5,251C 265.382,250.802 267.048,250.302 268.5,249.5 Z"/></g>
<g><path style="opacity:1" fill="#6c7896" d="M 379.5,249.5 C 379.378,252.292 378.044,254.292 375.5,255.5C 376.449,253.223 377.782,251.223 379.5,249.5 Z"/></g>
<g><path style="opacity:1" fill="#273653" d="M 273.5,250.5 C 273.5,250.833 273.5,251.167 273.5,251.5C 273.721,252.735 274.388,253.735 275.5,254.5C 275.376,255.107 275.043,255.44 274.5,255.5C 258.587,254.545 242.921,254.712 227.5,256C 201.5,256.667 175.5,256.667 149.5,256C 144.631,254.465 139.631,253.465 134.5,253C 138.821,252.501 143.154,252.334 147.5,252.5C 149.5,252.5 151.5,252.5 153.5,252.5C 166.483,253.833 179.816,254.499 193.5,254.5C 220.325,255.152 246.992,253.818 273.5,250.5 Z"/></g>
<g><path style="opacity:1" fill="#b7b9b3" d="M 273.5,251.5 C 274.167,251.5 274.833,251.5 275.5,251.5C 275.666,256.063 277.666,259.397 281.5,261.5C 279.071,261.116 276.737,260.449 274.5,259.5C 274.5,258.167 274.5,256.833 274.5,255.5C 275.043,255.44 275.376,255.107 275.5,254.5C 274.388,253.735 273.721,252.735 273.5,251.5 Z"/></g>
<g><path style="opacity:1" fill="#9192a0" d="M 357.5,258.5 C 356.313,260.975 354.313,261.975 351.5,261.5C 353.456,260.508 355.456,259.508 357.5,258.5 Z"/></g>
<g><path style="opacity:1" fill="#b9c0d2" d="M 370.5,259.5 C 370.5,260.5 370.5,261.5 370.5,262.5C 364.838,264.825 359.171,267.158 353.5,269.5C 358.907,265.767 364.573,262.434 370.5,259.5 Z"/></g>
<g><path style="opacity:1" fill="#b0b2b2" d="M 59.5,268.5 C 63.3716,269.102 66.7049,270.769 69.5,273.5C 65.6193,272.893 62.286,271.226 59.5,268.5 Z"/></g>
<g><path style="opacity:1" fill="#828497" d="M 346.5,265.5 C 345.097,266.931 343.431,268.098 341.5,269C 340.207,269.49 338.873,269.657 337.5,269.5C 340.053,267.416 343.053,266.083 346.5,265.5 Z"/></g>
<g><path style="opacity:1" fill="#121e5b" d="M 119.5,261.5 C 120.5,261.5 121.5,261.5 122.5,261.5C 125.084,262.048 126.084,263.715 125.5,266.5C 123.58,267.065 121.913,268.065 120.5,269.5C 117.053,270.083 114.053,271.416 111.5,273.5C 111.5,273.833 111.5,274.167 111.5,274.5C 109.334,274.579 107.334,275.246 105.5,276.5C 103.131,276.405 101.464,275.405 100.5,273.5C 107.109,269.709 113.442,265.709 119.5,261.5 Z"/></g>
<g><path style="opacity:1" fill="#677196" d="M 120.5,269.5 C 119.097,270.931 117.431,272.098 115.5,273C 114.207,273.49 112.873,273.657 111.5,273.5C 114.053,271.416 117.053,270.083 120.5,269.5 Z"/></g>
<g><path style="opacity:1" fill="#b9bed0" d="M 49.5,271.5 C 50.8734,271.343 52.2068,271.51 53.5,272C 55.4747,274.092 57.4747,275.925 59.5,277.5C 55.7958,276.051 52.4625,274.051 49.5,271.5 Z"/></g>
<g><path style="opacity:1" fill="#16205c" d="M 107.5,151.5 C 113.348,154.465 119.348,157.132 125.5,159.5C 127.147,161.326 129.147,162.66 131.5,163.5C 131.5,164.5 131.5,165.5 131.5,166.5C 134.743,166.914 137.743,167.914 140.5,169.5C 144.763,172.431 147.43,176.431 148.5,181.5C 147.486,182.674 146.153,183.34 144.5,183.5C 140.318,178.154 135.318,173.654 129.5,170C 119.669,165.495 110.336,160.162 101.5,154C 100.207,153.51 98.8734,153.343 97.5,153.5C 96.6521,151.907 95.3187,150.74 93.5,150C 86.8085,149.169 80.1418,149.336 73.5,150.5C 67.7949,153.346 62.4616,156.68 57.5,160.5C 50.7069,164.033 44.0403,167.7 37.5,171.5C 31.5953,173.071 27.5953,176.737 25.5,182.5C 25.5,183.5 25.5,184.5 25.5,185.5C 24.1683,194.308 23.5017,203.475 23.5,213C 23.6667,222.167 23.8333,231.333 24,240.5C 24.3826,241.056 24.8826,241.389 25.5,241.5C 25.2859,246.306 27.2859,249.973 31.5,252.5C 40.9443,257.919 50.2777,263.252 59.5,268.5C 62.286,271.226 65.6193,272.893 69.5,273.5C 71.5274,275.847 74.194,277.181 77.5,277.5C 79.0478,278.794 81.0478,279.461 83.5,279.5C 88.5868,279.561 93.4201,278.561 98,276.5C 102.42,278.372 102.253,280.039 97.5,281.5C 96.4479,283.256 94.7812,283.923 92.5,283.5C 86.8333,283.5 81.1667,283.5 75.5,283.5C 71.4719,282.162 67.4719,280.829 63.5,279.5C 62.8166,277.824 61.4832,277.157 59.5,277.5C 57.4747,275.925 55.4747,274.092 53.5,272C 52.2068,271.51 50.8734,271.343 49.5,271.5C 43.2687,266.413 36.2687,262.246 28.5,259C 25.1827,255.993 22.1827,252.826 19.5,249.5C 19.6747,247.379 19.3414,245.379 18.5,243.5C 18.1897,222.787 18.523,202.121 19.5,181.5C 19.2322,179.901 19.5655,178.568 20.5,177.5C 23.1667,174.167 26.1667,171.167 29.5,168.5C 41.7077,160.756 54.3744,153.756 67.5,147.5C 69.3032,146.954 70.9698,146.12 72.5,145C 79.8333,144.333 87.1667,144.333 94.5,145C 93.142,147.752 93.8087,148.252 96.5,146.5C 98.3337,147.754 100.334,148.421 102.5,148.5C 102.286,150.144 102.62,151.644 103.5,153C 104.332,153.688 104.998,153.521 105.5,152.5C 103.439,150.356 104.105,150.023 107.5,151.5 Z"/></g>
<g><path style="opacity:1" fill="#9c9fa3" d="M 37.5,171.5 C 33.1364,174.827 29.1364,178.494 25.5,182.5C 27.5953,176.737 31.5953,173.071 37.5,171.5 Z"/></g>
<g><path style="opacity:1" fill="#b7bab5" d="M 97.5,153.5 C 84.1575,147.841 72.1575,150.007 61.5,160C 60.2068,160.49 58.8734,160.657 57.5,160.5C 62.4616,156.68 67.7949,153.346 73.5,150.5C 80.1418,149.336 86.8085,149.169 93.5,150C 95.3187,150.74 96.6521,151.907 97.5,153.5 Z"/></g>
<g><path style="opacity:1" fill="#273653" d="M 260.5,274.5 C 249.954,274.208 239.621,274.875 229.5,276.5C 198.478,276.528 167.478,275.695 136.5,274C 137.167,273.667 137.833,273.333 138.5,273C 158.537,272.311 178.537,272.811 198.5,274.5C 204.5,274.333 210.5,274.167 216.5,274C 217.416,273.626 218.25,273.126 219,272.5C 226.557,272.92 234.224,272.92 242,272.5C 248.538,272.504 254.705,273.17 260.5,274.5 Z"/></g>
<g><path style="opacity:1" fill="#4d4e48" d="M 267.5,273.5 C 267.5,274.833 266.833,275.5 265.5,275.5C 253.492,275.591 241.492,275.925 229.5,276.5C 239.621,274.875 249.954,274.208 260.5,274.5C 262.764,273.781 265.097,273.448 267.5,273.5 Z"/></g>
<g><path style="opacity:1" fill="#394070" d="M 100.5,273.5 C 101.464,275.405 103.131,276.405 105.5,276.5C 107.334,275.246 109.334,274.579 111.5,274.5C 108.152,276.854 104.818,279.188 101.5,281.5C 100.167,281.5 98.8333,281.5 97.5,281.5C 102.253,280.039 102.42,278.372 98,276.5C 93.4201,278.561 88.5868,279.561 83.5,279.5C 81.0478,279.461 79.0478,278.794 77.5,277.5C 85.7475,278.523 93.4141,277.19 100.5,273.5 Z"/></g>
<g><path style="opacity:1" fill="#cdcec3" d="M 295.5,270.5 C 300.343,270.365 304.343,272.032 307.5,275.5C 313.463,276.496 319.463,276.829 325.5,276.5C 325.5,276.833 325.5,277.167 325.5,277.5C 318.8,277.83 312.134,277.497 305.5,276.5C 301.8,274.989 298.467,272.989 295.5,270.5 Z"/></g>
<g><path style="opacity:1" fill="#73778f" d="M 332.5,273.5 C 330.434,275.199 328.1,276.532 325.5,277.5C 325.5,277.167 325.5,276.833 325.5,276.5C 327.547,274.925 329.881,273.925 332.5,273.5 Z"/></g>
<g><path style="opacity:1" fill="#be8f12" d="M 133.5,275.5 C 140.022,275.177 146.355,275.51 152.5,276.5C 150.833,276.5 149.167,276.5 147.5,276.5C 148.884,279.595 150.55,282.595 152.5,285.5C 165.496,300.249 181.496,309.582 200.5,313.5C 194.773,313.74 189.106,313.407 183.5,312.5C 179.503,311.686 175.503,310.686 171.5,309.5C 170.652,307.907 169.319,306.74 167.5,306C 164.715,305.342 162.049,304.509 159.5,303.5C 155.207,299.561 150.54,295.894 145.5,292.5C 142.739,288.65 139.739,284.983 136.5,281.5C 134.967,279.711 133.967,277.711 133.5,275.5 Z"/></g>
<g><path style="opacity:1" fill="#c2a519" d="M 265.5,275.5 C 265.672,276.492 265.338,277.158 264.5,277.5C 228.862,278.629 193.195,278.629 157.5,277.5C 181.672,277.831 205.672,277.498 229.5,276.5C 241.492,275.925 253.492,275.591 265.5,275.5 Z"/></g>
<g><path style="opacity:1" fill="#fec004" d="M 152.5,276.5 C 153.919,277.451 155.585,277.784 157.5,277.5C 193.195,278.629 228.862,278.629 264.5,277.5C 262.598,281.08 260.264,284.413 257.5,287.5C 253.119,291.215 249.119,295.215 245.5,299.5C 235.552,305.357 225.219,310.023 214.5,313.5C 209.833,313.5 205.167,313.5 200.5,313.5C 181.496,309.582 165.496,300.249 152.5,285.5C 150.55,282.595 148.884,279.595 147.5,276.5C 149.167,276.5 150.833,276.5 152.5,276.5 Z"/></g>
<g><path style="opacity:1" fill="#404a7f" d="M 329.5,282.5 C 323.245,285.36 316.579,286.193 309.5,285C 308.584,284.722 307.918,284.222 307.5,283.5C 314.862,283.635 322.196,283.302 329.5,282.5 Z"/></g>
<g><path style="opacity:1" fill="#c3c8d8" d="M 63.5,279.5 C 67.4719,280.829 71.4719,282.162 75.5,283.5C 77.5706,284.809 80.0706,285.475 83,285.5C 85.5,285.333 88,285.167 90.5,285C 91.4158,284.722 92.0825,284.222 92.5,283.5C 94.7812,283.923 96.4479,283.256 97.5,281.5C 98.8333,281.5 100.167,281.5 101.5,281.5C 101.047,282.458 100.381,283.292 99.5,284C 91.3866,286.612 83.0533,287.112 74.5,285.5C 70.5514,283.864 66.8848,281.864 63.5,279.5 Z"/></g>
<g><path style="opacity:1" fill="#414b81" d="M 75.5,283.5 C 81.1667,283.5 86.8333,283.5 92.5,283.5C 92.0825,284.222 91.4158,284.722 90.5,285C 88,285.167 85.5,285.333 83,285.5C 80.0706,285.475 77.5706,284.809 75.5,283.5 Z"/></g>
<g><path style="opacity:1" fill="#ffefc4" d="M 257.5,287.5 C 255.577,290.603 253.41,293.603 251,296.5C 249.417,297.971 247.583,298.971 245.5,299.5C 249.119,295.215 253.119,291.215 257.5,287.5 Z"/></g>
<g><path style="opacity:1" fill="#ead9af" d="M 159.5,303.5 C 162.049,304.509 164.715,305.342 167.5,306C 169.319,306.74 170.652,307.907 171.5,309.5C 167.255,307.866 163.255,305.866 159.5,303.5 Z"/></g>
<g><path style="opacity:1" fill="#f3e4c1" d="M 183.5,312.5 C 189.106,313.407 194.773,313.74 200.5,313.5C 205.167,313.5 209.833,313.5 214.5,313.5C 204.675,314.658 194.675,314.825 184.5,314C 183.944,313.617 183.611,313.117 183.5,312.5 Z"/></g>
</svg>
